<svg class="fill-current text-black" enable-background="new 0 0 24 24" viewBox="0 0 24 24" xmlns="http://www.w3.org/2000/svg"><path d="m12 6c5.523 0 10-1.343 10-3s-4.477-3-10-3-10 1.343-10 3c0 1.657 4.478 3 10 3zm0 14c-2.86 0-5.575-.342-7.646-.963-.986-.296-1.752-.64-2.354-1.008v2.471c0 1.933 4.478 3.5 10 3.5 5.523 0 10-1.567 10-3.5v-2.471c-.602.368-1.368.712-2.354 1.008-2.07.621-4.786.963-7.646.963zm0-6c-2.86 0-5.575-.342-7.646-.963-.986-.296-1.752-.64-2.354-1.008v2.971c0 1.657 4.478 3 10 3 5.523 0 10-1.343 10-3v-2.971c-.602.368-1.368.712-2.354 1.008-2.07.621-4.786.963-7.646.963zm0-6c-2.86 0-5.575-.342-7.646-.963-.986-.296-1.752-.64-2.354-1.008v2.971c0 1.657 4.478 3 10 3 5.523 0 10-1.343 10-3v-2.971c-.602.368-1.368.712-2.354 1.008-2.07.621-4.786.963-7.646.963z"/></svg>
